<svg width="24" height="24" viewBox="0 0 24 24" fill="none" xmlns="http://www.w3.org/2000/svg">
<g id="Icon">
<g id="Group">
<path id="Vector" d="M16.7572 11.0178L12.74 7.15543L16.7572 11.0178ZM20.2961 8.53405L9.42879 18.9777C8.86806 19.5173 8.15366 19.8853 7.37563 20.0353L2.35089 21L3.35659 16.1712C3.51219 15.4235 3.8936 14.7378 4.45528 14.1981L15.3226 3.75446C15.6492 3.44063 16.0369 3.19168 16.4635 3.02184C16.8902 2.85199 17.3475 2.76458 17.8094 2.76458C18.2712 2.76458 18.7285 2.85199 19.1552 3.02184C19.5819 3.19168 19.9696 3.44063 20.2961 3.75446C20.6227 4.06829 20.8817 4.44086 21.0585 4.85091C21.2352 5.26095 21.3262 5.70043 21.3262 6.14425C21.3262 6.58808 21.2352 7.02756 21.0585 7.4376C20.8817 7.84764 20.6227 8.22021 20.2961 8.53405V8.53405Z" stroke="#33ACCF" stroke-width="2" stroke-linecap="round" stroke-linejoin="round"/>
</g>
</g>
</svg>
